<svg xmlns="http://www.w3.org/2000/svg" viewBox="0 0 403.23 124.78">
  <g id="Layer_2" data-name="Layer 2">
    <g id="Calque_1" data-name="Calque 1">
      <g>
        <g>
          <rect x="289.85" width="113.39" height="113.39" style="fill: #231f20"/>
          <g>
            <path d="M334.33,102.41a9.29,9.29,0,0,1-5.22,1.57,4.37,4.37,0,0,1-4.68-4.59c0-3.53,3.24-5.4,9.93-6.16v-.88c0-1.15-.87-1.81-2.47-1.81A4.74,4.74,0,0,0,328,92.35l-2.81-1.59q2.2-3.09,6.72-3.09c4.12,0,6.42,1.79,6.42,4.68,0,0,0,11.42,0,11.45H334.7Zm-5.82-3.32a1.9,1.9,0,0,0,1.87,2,5.83,5.83,0,0,0,3.85-1.66V95.74C330.35,96.22,328.51,97.22,328.51,99.09Z" style="fill: #fff"/>
            <path d="M341.66,88.43,345.1,88l.37,1.87c1.95-1.41,3.49-2.17,5.43-2.17,3.24,0,4.92,1.72,4.92,5.13v11h-4.15V93.5c0-1.92-.51-2.8-2-2.8a6.1,6.1,0,0,0-3.88,1.75v11.32h-4.12Z" style="fill: #fff"/>
            <path d="M383.32,104.07c-4.65,0-7.43-3-7.43-8.18s2.81-8.24,7.36-8.24,7.26,2.9,7.26,8c0,.27,0,.54,0,.82H380q0,4.48,3.71,4.49a4,4,0,0,0,3.58-2l3,1.69C389,102.89,386.57,104.07,383.32,104.07Zm3.11-10.26c0-2.12-1.2-3.35-3.18-3.35s-3,1.2-3.21,3.35Z" style="fill: #fff"/>
            <path d="M303.8,104.25c-4.1,0-7.8-2.62-7.8-8.33s3.7-8.33,7.8-8.33,7.81,2.62,7.81,8.33S307.91,104.25,303.8,104.25Zm0-13.15c-3.09,0-3.67,2.8-3.67,4.82s.58,4.82,3.67,4.82,3.68-2.8,3.68-4.82S306.9,91.1,303.8,91.1Z" style="fill: #fff"/>
            <path d="M314.46,88h4v1.86a6.13,6.13,0,0,1,4.35-2.18,3.2,3.2,0,0,1,.53,0v3.9h-.2c-1.8,0-3.78.27-4.42,1.68v10.49h-4.21Z" style="fill: #fff"/>
            <path d="M366,100.39c3.16,0,3.42-3.22,3.42-5.32,0-2.46-1.21-4.47-3.45-4.47-1.49,0-3.15,1.09-3.15,4.64C362.8,97.2,362.94,100.42,366,100.39ZM373.39,88v14.94c0,2.64-.2,7-7.72,7-3.11,0-6-1.23-6.56-3.94l4.1-.65c.17.77.65,1.54,3,1.54,2.16,0,3.19-1,3.19-3.49v-1.84l-.06-.06a4.14,4.14,0,0,1-4.08,2.3c-3.67,0-6.57-2.55-6.57-7.89s3-8.23,6.35-8.23c3.14,0,4.31,1.43,4.58,2.18h0l.34-1.88Z" style="fill: #fff"/>
            <path d="M392.14,82.71h-1.63v4.53h-.86V82.71H388V82h4.12Zm6.8,4.53h-.86V82.88h0l-1.71,4.36h-.55l-1.7-4.36h0v4.36h-.86V82h1.33l1.55,4,1.53-4h1.32Z" style="fill: #fff"/>
          </g>
        </g>
        <g>
          <path d="M0,67.84H31.53v8.29H9.86v11H28.64v7.66H9.86v18.53H0Z" style="fill: #231f20"/>
          <path d="M65.52,113.35H57.05v-4.52h-.19a10.27,10.27,0,0,1-4.4,4.11,12.69,12.69,0,0,1-5.53,1.29,15.15,15.15,0,0,1-5.87-1,8.71,8.71,0,0,1-3.61-2.7,10.44,10.44,0,0,1-1.85-4.21,26,26,0,0,1-.54-5.5v-20H44V99.22a11.36,11.36,0,0,0,1.26,6c.84,1.32,2.32,2,4.46,2,2.42,0,4.18-.73,5.27-2.17s1.64-3.82,1.64-7.13v-17h8.91Z" style="fill: #231f20"/>
          <path d="M73.41,80.88h8.48V85.4h.19a10.24,10.24,0,0,1,4.39-4.11A12.72,12.72,0,0,1,92,80a15.3,15.3,0,0,1,5.87,1,8.59,8.59,0,0,1,3.61,2.71,10.49,10.49,0,0,1,1.86,4.2,26.67,26.67,0,0,1,.53,5.5v20H95V95a11.47,11.47,0,0,0-1.25-6q-1.26-2-4.46-2Q85.6,87,84,89.2c-1.09,1.45-1.63,3.82-1.63,7.13v17H73.41Z" style="fill: #231f20"/>
          <path d="M133,109.21h-.13a9.4,9.4,0,0,1-4.11,3.83,14.77,14.77,0,0,1-12.19-.26,13.3,13.3,0,0,1-4.52-3.86,17.44,17.44,0,0,1-2.7-5.56,23.57,23.57,0,0,1-.91-6.53,22.19,22.19,0,0,1,.91-6.31,16.54,16.54,0,0,1,2.7-5.37,13.63,13.63,0,0,1,4.49-3.74A13.4,13.4,0,0,1,122.85,80a12.74,12.74,0,0,1,5.5,1.23,9.49,9.49,0,0,1,4.11,3.61h.13v-17h8.92v45.51H133ZM132.9,97a19.58,19.58,0,0,0-.37-3.83,9.53,9.53,0,0,0-1.29-3.3,7.18,7.18,0,0,0-2.39-2.29,6.9,6.9,0,0,0-3.61-.88,7.16,7.16,0,0,0-3.7.88,6.9,6.9,0,0,0-2.42,2.32,10.27,10.27,0,0,0-1.32,3.33,18.26,18.26,0,0,0-.41,3.83,16.66,16.66,0,0,0,.44,3.77,10.13,10.13,0,0,0,1.41,3.36,7.87,7.87,0,0,0,2.45,2.39,6.63,6.63,0,0,0,3.55.91,7,7,0,0,0,3.67-.88,6.72,6.72,0,0,0,2.36-2.35,10.79,10.79,0,0,0,1.26-3.36A20,20,0,0,0,132.9,97Z" style="fill: #231f20"/>
          <path d="M204.22,92.31q-.89-5.59-6.6-5.59a6.26,6.26,0,0,0-3.58,1,7.54,7.54,0,0,0-2.35,2.51,10.64,10.64,0,0,0-1.29,3.42,18.69,18.69,0,0,0-.38,3.64,17.72,17.72,0,0,0,.38,3.58,11.1,11.1,0,0,0,1.22,3.3,7.1,7.1,0,0,0,2.3,2.42,6.26,6.26,0,0,0,3.51.94,6.54,6.54,0,0,0,4.93-1.79,8.46,8.46,0,0,0,2.17-4.8h8.6q-.87,6.47-5,9.89a16.11,16.11,0,0,1-10.61,3.42,17.83,17.83,0,0,1-6.72-1.22,14.66,14.66,0,0,1-5.15-3.46,15.67,15.67,0,0,1-3.33-5.27,18.13,18.13,0,0,1-1.2-6.69,21.73,21.73,0,0,1,1.1-7A15.83,15.83,0,0,1,185.44,85a14.78,14.78,0,0,1,5.21-3.67,17.7,17.7,0,0,1,7-1.32,20.07,20.07,0,0,1,5.56.76A14.8,14.8,0,0,1,208,83.05a12.11,12.11,0,0,1,3.42,3.86,12.37,12.37,0,0,1,1.51,5.4Z" style="fill: #231f20"/>
          <path d="M212.11,117.18a5.81,5.81,0,0,0,1.94.25,5.29,5.29,0,0,0,2.42-.53c.69-.36,1-1.14,1-2.36V80.88h8.91V115a15.43,15.43,0,0,1-.53,4.34,6.71,6.71,0,0,1-1.82,3,7.88,7.88,0,0,1-3.49,1.82,21.63,21.63,0,0,1-5.59.6q-.69,0-1.44-.06c-.5,0-1-.11-1.44-.19Zm14.31-42h-8.91V67.84h8.91Z" style="fill: #231f20"/>
          <path d="M261.74,110.34a33.55,33.55,0,0,1-.25-4.21V89.23a7.86,7.86,0,0,0-1.32-4.71,9,9,0,0,0-3.39-2.82,15.14,15.14,0,0,0-4.59-1.35,36.41,36.41,0,0,0-5-.35,27.62,27.62,0,0,0-5.4.53,15.56,15.56,0,0,0-4.77,1.79,10.57,10.57,0,0,0-3.52,3.36A10.31,10.31,0,0,0,232,90.57h8.94a4.86,4.86,0,0,1,1.71-3.47A6.76,6.76,0,0,1,246.79,86a15.54,15.54,0,0,1,2.23.15,5.09,5.09,0,0,1,1.82.63,3.5,3.5,0,0,1,1.26,1.35,4.83,4.83,0,0,1,.47,2.26,2.41,2.41,0,0,1-.82,2.11,6,6,0,0,1-2.38,1.1,23.4,23.4,0,0,1-3.46.56c-1.3.13-2.61.3-3.95.5a38.77,38.77,0,0,0-4,.85,11.44,11.44,0,0,0-3.52,1.6,8.21,8.21,0,0,0-2.51,2.86,9.44,9.44,0,0,0-1,4.55,10.3,10.3,0,0,0,.85,4.34,8.17,8.17,0,0,0,2.36,3,10,10,0,0,0,3.52,1.79,15,15,0,0,0,4.33.6,19.38,19.38,0,0,0,5.9-.91,11.91,11.91,0,0,0,5-3.11,11.85,11.85,0,0,0,.22,1.6,12.87,12.87,0,0,0,.4,1.54h9.05A7.6,7.6,0,0,1,261.74,110.34Zm-9.17-9.55a16.13,16.13,0,0,1-.16,2,6.66,6.66,0,0,1-.85,2.48,5.8,5.8,0,0,1-2.13,2.1,7.83,7.83,0,0,1-4.08.88,10.87,10.87,0,0,1-2.08-.19,4.93,4.93,0,0,1-1.75-.65,3.45,3.45,0,0,1-1.2-1.26,4.17,4.17,0,0,1-.44-2,4.39,4.39,0,0,1,.44-2,4,4,0,0,1,1.16-1.39,6.23,6.23,0,0,1,1.67-.84,14.76,14.76,0,0,1,2-.51c.67-.12,1.37-.22,2.1-.31s1.43-.19,2.07-.31a17.42,17.42,0,0,0,1.83-.47,4,4,0,0,0,1.41-.79Z" style="fill: #231f20"/>
          <path d="M176.87,110.34a33.55,33.55,0,0,1-.25-4.21V89.23a7.86,7.86,0,0,0-1.32-4.71,9,9,0,0,0-3.39-2.82,15.14,15.14,0,0,0-4.59-1.35,36.3,36.3,0,0,0-5-.35,27.62,27.62,0,0,0-5.4.53,15.56,15.56,0,0,0-4.77,1.79,10.57,10.57,0,0,0-3.52,3.36,10.42,10.42,0,0,0-1.54,4.89h8.94a4.86,4.86,0,0,1,1.71-3.47A6.76,6.76,0,0,1,161.92,86a15.54,15.54,0,0,1,2.23.15,5.09,5.09,0,0,1,1.82.63,3.42,3.42,0,0,1,1.26,1.35,4.83,4.83,0,0,1,.47,2.26,2.41,2.41,0,0,1-.82,2.11,6,6,0,0,1-2.38,1.1,23.4,23.4,0,0,1-3.46.56c-1.29.13-2.61.3-3.95.5a39.34,39.34,0,0,0-4,.85,11.44,11.44,0,0,0-3.52,1.6,8.31,8.31,0,0,0-2.51,2.86,9.44,9.44,0,0,0-1,4.55,10.31,10.31,0,0,0,.84,4.34,8.17,8.17,0,0,0,2.36,3,10.1,10.1,0,0,0,3.52,1.79,15.06,15.06,0,0,0,4.33.6,19.38,19.38,0,0,0,5.9-.91,11.91,11.91,0,0,0,5-3.11,11.85,11.85,0,0,0,.22,1.6,11.25,11.25,0,0,0,.41,1.54h9A7.6,7.6,0,0,1,176.87,110.34Zm-9.17-9.55a16.13,16.13,0,0,1-.16,2,6.64,6.64,0,0,1-.84,2.48,5.91,5.91,0,0,1-2.14,2.1,7.83,7.83,0,0,1-4.08.88,10.84,10.84,0,0,1-2.07-.19,5,5,0,0,1-1.76-.65,3.53,3.53,0,0,1-1.2-1.26,4.17,4.17,0,0,1-.44-2,4.39,4.39,0,0,1,.44-2,4,4,0,0,1,1.17-1.39,6,6,0,0,1,1.66-.84,14.76,14.76,0,0,1,2-.51c.67-.12,1.37-.22,2.1-.31s1.43-.19,2.08-.31a17.87,17.87,0,0,0,1.82-.47,4,4,0,0,0,1.41-.79Z" style="fill: #231f20"/>
        </g>
      </g>
    </g>
  </g>
</svg>
