<svg xmlns="http://www.w3.org/2000/svg" viewBox="0 0 515.91 226.43">
  <g id="Layer_2" data-name="Layer 2">
    <g id="Calque_1" data-name="Calque 1">
      <rect width="515.91" height="226.43" style="fill: none"/>
      <g>
        <g>
          <rect x="346.22" y="56.69" width="113.39" height="113.39" style="fill: #231f20"/>
          <g>
            <path d="M390.7,159.1a9.29,9.29,0,0,1-5.22,1.57,4.38,4.38,0,0,1-4.69-4.58c0-3.54,3.25-5.41,9.94-6.17v-.87c0-1.15-.87-1.82-2.48-1.82a4.71,4.71,0,0,0-3.84,1.82l-2.81-1.6c1.47-2.06,3.71-3.08,6.72-3.08,4.12,0,6.42,1.78,6.42,4.68,0,0,0,11.41,0,11.44h-3.68Zm-5.82-3.32a1.9,1.9,0,0,0,1.87,2.05,5.82,5.82,0,0,0,3.85-1.66v-3.74C386.72,152.92,384.88,153.91,384.88,155.78Z" style="fill: #fff"/>
            <path d="M398,145.12l3.44-.47.37,1.87c2-1.42,3.49-2.18,5.43-2.18,3.24,0,4.92,1.72,4.92,5.14v11H408V150.2c0-1.93-.5-2.81-2-2.81a6.15,6.15,0,0,0-3.88,1.75v11.33H398Z" style="fill: #fff"/>
            <path d="M439.69,160.76c-4.65,0-7.43-3-7.43-8.17s2.81-8.25,7.36-8.25,7.26,2.9,7.26,8c0,.26,0,.54,0,.81H436.34c0,3,1.27,4.5,3.72,4.5a4,4,0,0,0,3.58-2l3,1.69C445.34,159.59,442.94,160.76,439.69,160.76Zm3.11-10.26a3,3,0,0,0-3.18-3.35c-1.87,0-3,1.21-3.21,3.35Z" style="fill: #fff"/>
            <path d="M360.17,160.94c-4.1,0-7.8-2.62-7.8-8.33s3.7-8.33,7.8-8.33,7.81,2.62,7.81,8.33S364.28,160.94,360.17,160.94Zm0-13.14c-3.1,0-3.67,2.79-3.67,4.81s.57,4.82,3.67,4.82,3.68-2.79,3.68-4.82S363.27,147.8,360.17,147.8Z" style="fill: #fff"/>
            <path d="M370.83,144.69h3.94v1.87a6.14,6.14,0,0,1,4.35-2.19,3.26,3.26,0,0,1,.54,0v3.9h-.2c-1.81,0-3.78.28-4.42,1.68v10.5h-4.21Z" style="fill: #fff"/>
            <path d="M422.35,157.09c3.15,0,3.42-3.23,3.42-5.33,0-2.46-1.21-4.47-3.45-4.47-1.49,0-3.15,1.09-3.15,4.65C419.17,153.89,419.3,157.11,422.35,157.09Zm7.41-12.45v14.94c0,2.64-.2,7-7.72,7-3.11,0-6-1.22-6.56-3.93l4.1-.66c.17.77.65,1.55,3,1.55,2.15,0,3.19-1,3.19-3.5v-1.84l-.06,0a4.15,4.15,0,0,1-4.08,2.29c-3.67,0-6.57-2.55-6.57-7.88s3-8.23,6.34-8.24c3.15,0,4.32,1.43,4.59,2.19h0l.34-1.89Z" style="fill: #fff"/>
            <path d="M448.51,139.41h-1.63v4.52H446v-4.52h-1.63v-.7h4.12Zm6.8,4.52h-.86v-4.36h0l-1.71,4.36h-.55l-1.7-4.36h0v4.36h-.86v-5.22h1.32l1.56,4,1.53-4h1.32Z" style="fill: #fff"/>
          </g>
        </g>
        <g>
          <path d="M56.37,124.53H87.9v8.29H66.23v11H85v7.67H66.23V170H56.37Z" style="fill: #231f20"/>
          <path d="M121.89,170h-8.48v-4.52h-.18a10.15,10.15,0,0,1-4.4,4.11,12.69,12.69,0,0,1-5.53,1.29,15.15,15.15,0,0,1-5.87-1,8.71,8.71,0,0,1-3.61-2.7A10.38,10.38,0,0,1,92,163a25.9,25.9,0,0,1-.54-5.5v-20h8.92v18.34a11.36,11.36,0,0,0,1.26,6q1.24,2,4.46,2,3.63,0,5.27-2.17t1.64-7.13v-17h8.91Z" style="fill: #231f20"/>
          <path d="M129.78,137.57h8.48v4.53h.19a10.21,10.21,0,0,1,4.39-4.12,12.72,12.72,0,0,1,5.53-1.29,15.1,15.1,0,0,1,5.87,1,8.71,8.71,0,0,1,3.61,2.7,10.47,10.47,0,0,1,1.86,4.21,26.5,26.5,0,0,1,.53,5.49v20h-8.92V151.7a11.45,11.45,0,0,0-1.25-6q-1.26-2-4.46-2-3.65,0-5.28,2.16T138.7,153v17h-8.92Z" style="fill: #231f20"/>
          <path d="M189.4,165.9h-.13a9.45,9.45,0,0,1-4.11,3.83,13.47,13.47,0,0,1-5.75,1.19,13.66,13.66,0,0,1-6.44-1.44,13.3,13.3,0,0,1-4.52-3.86,17.64,17.64,0,0,1-2.7-5.56,23.25,23.25,0,0,1-.91-6.53,21.86,21.86,0,0,1,.91-6.32,16.54,16.54,0,0,1,2.7-5.37,13.6,13.6,0,0,1,4.49-3.73,13.4,13.4,0,0,1,6.28-1.42,12.74,12.74,0,0,1,5.5,1.23,9.55,9.55,0,0,1,4.11,3.61H189v-17h8.92V170H189.4Zm-.13-12.19a18.92,18.92,0,0,0-.38-3.83,9.54,9.54,0,0,0-1.28-3.29,7.2,7.2,0,0,0-2.39-2.3,7,7,0,0,0-3.61-.88,7.33,7.33,0,0,0-3.71.88,7,7,0,0,0-2.41,2.33,10.1,10.1,0,0,0-1.32,3.33,17.48,17.48,0,0,0-.41,3.83,16.64,16.64,0,0,0,.44,3.76,10.27,10.27,0,0,0,1.41,3.37,7.83,7.83,0,0,0,2.45,2.38,6.6,6.6,0,0,0,3.55.91,7,7,0,0,0,3.67-.88,6.64,6.64,0,0,0,2.36-2.35,10.78,10.78,0,0,0,1.25-3.36A19.25,19.25,0,0,0,189.27,153.71Z" style="fill: #231f20"/>
          <path d="M260.59,149q-.88-5.58-6.6-5.59a6.26,6.26,0,0,0-3.58,1,7.64,7.64,0,0,0-2.35,2.51,10.82,10.82,0,0,0-1.29,3.42,18.71,18.71,0,0,0-.38,3.65,17.62,17.62,0,0,0,.38,3.57,11.1,11.1,0,0,0,1.22,3.3,7,7,0,0,0,2.3,2.42,6.26,6.26,0,0,0,3.51.94,6.5,6.5,0,0,0,4.93-1.79,8.43,8.43,0,0,0,2.17-4.8h8.6q-.87,6.46-5,9.89a16.11,16.11,0,0,1-10.61,3.42,17.76,17.76,0,0,1-6.72-1.22,14.66,14.66,0,0,1-5.15-3.46,15.67,15.67,0,0,1-3.33-5.27,18.09,18.09,0,0,1-1.2-6.69,21.67,21.67,0,0,1,1.1-7,15.6,15.6,0,0,1,3.24-5.59A14.8,14.8,0,0,1,247,138a17.7,17.7,0,0,1,7-1.32,20.45,20.45,0,0,1,5.56.76,15,15,0,0,1,4.78,2.29,12.21,12.21,0,0,1,3.42,3.86,12.37,12.37,0,0,1,1.51,5.4Z" style="fill: #231f20"/>
          <path d="M268.47,173.87a5.87,5.87,0,0,0,1.95.26,5.17,5.17,0,0,0,2.42-.54c.69-.35,1-1.14,1-2.35V137.57h8.91v34.11a15.4,15.4,0,0,1-.53,4.33,6.8,6.8,0,0,1-1.82,3.05,8.09,8.09,0,0,1-3.49,1.82,22.19,22.19,0,0,1-5.59.59q-.69,0-1.44-.06a13.34,13.34,0,0,1-1.45-.19Zm14.32-42h-8.91v-7.35h8.91Z" style="fill: #231f20"/>
          <path d="M318.11,167a33.44,33.44,0,0,1-.25-4.21V145.93a7.82,7.82,0,0,0-1.32-4.71,8.89,8.89,0,0,0-3.39-2.83,15.14,15.14,0,0,0-4.59-1.35,36.41,36.41,0,0,0-5-.35,26.88,26.88,0,0,0-5.4.54,15.07,15.07,0,0,0-4.77,1.79,10.57,10.57,0,0,0-3.52,3.36,10.28,10.28,0,0,0-1.54,4.89h8.94a4.87,4.87,0,0,1,1.71-3.48,6.76,6.76,0,0,1,4.14-1.13,14.17,14.17,0,0,1,2.23.16,4.74,4.74,0,0,1,1.82.63,3.43,3.43,0,0,1,1.26,1.35,4.8,4.8,0,0,1,.47,2.26,2.4,2.4,0,0,1-.82,2.1,6,6,0,0,1-2.38,1.1,24.71,24.71,0,0,1-3.46.57c-1.3.12-2.62.29-4,.5a36.62,36.62,0,0,0-4,.85,11.11,11.11,0,0,0-3.52,1.6,8.09,8.09,0,0,0-2.51,2.85,9.51,9.51,0,0,0-1,4.56,10.26,10.26,0,0,0,.85,4.33,8.2,8.2,0,0,0,2.36,3,10.4,10.4,0,0,0,3.51,1.79,15.49,15.49,0,0,0,4.34.59,19.43,19.43,0,0,0,5.9-.91,11.91,11.91,0,0,0,5-3.11,13.7,13.7,0,0,0,.21,1.6,15.12,15.12,0,0,0,.41,1.54H319A7.44,7.44,0,0,1,318.11,167Zm-9.17-9.55a16.13,16.13,0,0,1-.16,2,6.6,6.6,0,0,1-.85,2.48,5.9,5.9,0,0,1-2.13,2.11,8,8,0,0,1-4.08.88,11.74,11.74,0,0,1-2.08-.19,5.28,5.28,0,0,1-1.76-.66,3.43,3.43,0,0,1-1.19-1.26,4.17,4.17,0,0,1-.44-2,4.42,4.42,0,0,1,.44-2,3.83,3.83,0,0,1,1.16-1.38,5.84,5.84,0,0,1,1.67-.85,13.42,13.42,0,0,1,2-.5c.67-.13,1.37-.23,2.1-.32s1.42-.18,2.07-.31a15.26,15.26,0,0,0,1.83-.47,4,4,0,0,0,1.41-.79Z" style="fill: #231f20"/>
          <path d="M233.24,167a33.44,33.44,0,0,1-.25-4.21V145.93a7.82,7.82,0,0,0-1.32-4.71,8.89,8.89,0,0,0-3.39-2.83,15.14,15.14,0,0,0-4.59-1.35,36.41,36.41,0,0,0-5-.35,26.88,26.88,0,0,0-5.4.54,15.07,15.07,0,0,0-4.77,1.79,10.57,10.57,0,0,0-3.52,3.36,10.28,10.28,0,0,0-1.54,4.89h8.94a4.87,4.87,0,0,1,1.71-3.48,6.76,6.76,0,0,1,4.14-1.13,14.17,14.17,0,0,1,2.23.16,4.74,4.74,0,0,1,1.82.63,3.36,3.36,0,0,1,1.26,1.35,4.8,4.8,0,0,1,.47,2.26,2.4,2.4,0,0,1-.82,2.1,6,6,0,0,1-2.38,1.1,24.71,24.71,0,0,1-3.46.57c-1.3.12-2.61.29-3.95.5a36.8,36.8,0,0,0-4,.85,11.21,11.21,0,0,0-3.52,1.6,8.09,8.09,0,0,0-2.51,2.85,9.51,9.51,0,0,0-1,4.56,10.26,10.26,0,0,0,.84,4.33,8.2,8.2,0,0,0,2.36,3,10.45,10.45,0,0,0,3.52,1.79,15.36,15.36,0,0,0,4.33.59,19.38,19.38,0,0,0,5.9-.91,11.91,11.91,0,0,0,5-3.11,11.85,11.85,0,0,0,.22,1.6,12.87,12.87,0,0,0,.4,1.54h9.05A7.6,7.6,0,0,1,233.24,167Zm-9.17-9.55a16.13,16.13,0,0,1-.16,2,6.6,6.6,0,0,1-.85,2.48,5.9,5.9,0,0,1-2.13,2.11,7.92,7.92,0,0,1-4.08.88,11.74,11.74,0,0,1-2.08-.19,5.14,5.14,0,0,1-1.75-.66,3.45,3.45,0,0,1-1.2-1.26,4.17,4.17,0,0,1-.44-2,4.42,4.42,0,0,1,.44-2,3.93,3.93,0,0,1,1.16-1.38,6,6,0,0,1,1.67-.85,13.42,13.42,0,0,1,2-.5c.67-.13,1.37-.23,2.1-.32s1.43-.18,2.07-.31a15.26,15.26,0,0,0,1.83-.47,4,4,0,0,0,1.41-.79Z" style="fill: #231f20"/>
        </g>
      </g>
    </g>
  </g>
</svg>
