<svg id="Calque_1" data-name="Calque 1" xmlns="http://www.w3.org/2000/svg" viewBox="0 0 515.91 226.78">
  <g>
    <rect y="0.18" width="515.91" height="226.43" style="fill: none"/>
    <g>
      <rect x="346.22" y="56.87" width="113.39" height="113.39" style="fill: #231f20"/>
      <g>
        <path d="M390.7,159.27a9.3,9.3,0,0,1-5.22,1.58,4.38,4.38,0,0,1-4.69-4.59c0-3.53,3.25-5.4,9.94-6.16v-.88c0-1.15-.87-1.81-2.48-1.81a4.71,4.71,0,0,0-3.84,1.81l-2.81-1.6q2.2-3.08,6.72-3.08c4.12,0,6.42,1.79,6.42,4.68,0,0,0,11.42,0,11.45h-3.68ZM384.88,156a1.91,1.91,0,0,0,1.87,2,5.83,5.83,0,0,0,3.85-1.67v-3.73C386.72,153.09,384.88,154.09,384.88,156Z" style="fill: #fff"/>
        <path d="M398,145.29l3.44-.47.37,1.87c2-1.41,3.49-2.17,5.43-2.17,3.24,0,4.92,1.72,4.92,5.13v11H408V150.37c0-1.93-.5-2.8-2-2.8a6.1,6.1,0,0,0-3.88,1.75v11.32H398Z" style="fill: #fff"/>
        <path d="M439.69,160.94c-4.65,0-7.43-3-7.43-8.18s2.81-8.24,7.36-8.24,7.26,2.9,7.26,8c0,.27,0,.54,0,.82H436.34c0,3,1.27,4.49,3.72,4.49a4,4,0,0,0,3.58-2l3,1.69C445.34,159.76,442.94,160.94,439.69,160.94Zm3.11-10.26c0-2.12-1.2-3.35-3.18-3.35s-3,1.2-3.21,3.35Z" style="fill: #fff"/>
        <path d="M360.17,161.11c-4.1,0-7.8-2.61-7.8-8.33s3.7-8.32,7.8-8.32,7.81,2.62,7.81,8.32S364.28,161.11,360.17,161.11Zm0-13.14c-3.1,0-3.67,2.79-3.67,4.81s.57,4.82,3.67,4.82,3.68-2.79,3.68-4.82S363.27,148,360.17,148Z" style="fill: #fff"/>
        <path d="M370.83,144.87h3.94v1.86a6.17,6.17,0,0,1,4.35-2.18,3.26,3.26,0,0,1,.54,0v3.89h-.2c-1.81,0-3.78.28-4.42,1.69v10.49h-4.21Z" style="fill: #fff"/>
        <path d="M422.35,157.26c3.16,0,3.42-3.23,3.42-5.32,0-2.47-1.21-4.47-3.45-4.47-1.49,0-3.15,1.09-3.15,4.64C419.17,154.06,419.3,157.29,422.35,157.26Zm7.41-12.44v14.94c0,2.63-.2,7-7.72,7-3.11,0-6-1.22-6.56-3.93l4.1-.66c.17.78.65,1.55,3,1.55,2.15,0,3.19-1,3.19-3.49v-1.84l-.06-.06a4.14,4.14,0,0,1-4.08,2.3c-3.67,0-6.57-2.55-6.57-7.89s3-8.23,6.34-8.23c3.15,0,4.32,1.43,4.59,2.18h0l.34-1.88Z" style="fill: #fff"/>
        <path d="M448.51,139.58h-1.63v4.52H446v-4.52h-1.63v-.69h4.12Zm6.8,4.52h-.86v-4.35h0l-1.71,4.35h-.55l-1.7-4.35h0v4.35h-.86v-5.21h1.32l1.56,4,1.53-4h1.32Z" style="fill: #fff"/>
      </g>
    </g>
    <g>
      <path d="M56.37,124.71H87.9V133H66.23v11H85v7.66H66.23v18.53H56.37Z" style="fill: #231f20"/>
      <path d="M121.89,170.22h-8.48V165.7h-.18a10.27,10.27,0,0,1-4.4,4.11,12.69,12.69,0,0,1-5.53,1.29,15.13,15.13,0,0,1-5.87-1,8.55,8.55,0,0,1-3.61-2.7,10.34,10.34,0,0,1-1.85-4.2,26,26,0,0,1-.54-5.5v-20h8.92v18.34a11.36,11.36,0,0,0,1.26,6q1.24,2,4.46,2,3.63,0,5.27-2.16c1.09-1.45,1.64-3.82,1.64-7.13v-17h8.91Z" style="fill: #231f20"/>
      <path d="M129.78,137.75h8.48v4.52h.19a10.24,10.24,0,0,1,4.39-4.11,12.72,12.72,0,0,1,5.53-1.29,15.11,15.11,0,0,1,5.87,1,8.71,8.71,0,0,1,3.61,2.7,10.59,10.59,0,0,1,1.86,4.21,26.67,26.67,0,0,1,.53,5.5v20h-8.92V151.88a11.47,11.47,0,0,0-1.25-6q-1.26-2-4.46-2c-2.43,0-4.19.73-5.28,2.17s-1.63,3.82-1.63,7.13v17h-8.92Z" style="fill: #231f20"/>
      <path d="M189.4,166.07h-.13a9.39,9.39,0,0,1-4.11,3.83,13.32,13.32,0,0,1-5.75,1.2,13.54,13.54,0,0,1-6.44-1.45,13.3,13.3,0,0,1-4.52-3.86,17.44,17.44,0,0,1-2.7-5.56,23.2,23.2,0,0,1-.91-6.53,21.79,21.79,0,0,1,.91-6.31,16.54,16.54,0,0,1,2.7-5.37,13.09,13.09,0,0,1,10.77-5.15,12.87,12.87,0,0,1,5.5,1.22,9.51,9.51,0,0,1,4.11,3.62H189v-17h8.92v45.51H189.4Zm-.13-12.18a18.78,18.78,0,0,0-.38-3.83,9.52,9.52,0,0,0-1.28-3.3,7.27,7.27,0,0,0-2.39-2.29,6.9,6.9,0,0,0-3.61-.88,7.23,7.23,0,0,0-3.71.88,7,7,0,0,0-2.41,2.32,10.27,10.27,0,0,0-1.32,3.33,17.55,17.55,0,0,0-.41,3.83,16.72,16.72,0,0,0,.44,3.77,10.13,10.13,0,0,0,1.41,3.36,7.87,7.87,0,0,0,2.45,2.39,6.69,6.69,0,0,0,3.55.91,7,7,0,0,0,3.67-.88,6.67,6.67,0,0,0,2.36-2.36,10.59,10.59,0,0,0,1.25-3.36A19.08,19.08,0,0,0,189.27,153.89Z" style="fill: #231f20"/>
      <path d="M260.59,149.18q-.88-5.6-6.6-5.59a6.26,6.26,0,0,0-3.58,1,7.67,7.67,0,0,0-2.35,2.52,10.64,10.64,0,0,0-1.29,3.42,18.61,18.61,0,0,0-.38,3.64,17.72,17.72,0,0,0,.38,3.58A11.2,11.2,0,0,0,248,161a7.1,7.1,0,0,0,2.3,2.42,6.34,6.34,0,0,0,3.51.94,6.54,6.54,0,0,0,4.93-1.79,8.5,8.5,0,0,0,2.17-4.81h8.6c-.58,4.32-2.26,7.61-5,9.9a16.11,16.11,0,0,1-10.61,3.42,17.57,17.57,0,0,1-6.72-1.23,14.5,14.5,0,0,1-5.15-3.45,15.81,15.81,0,0,1-3.33-5.28,18.09,18.09,0,0,1-1.2-6.69,21.71,21.71,0,0,1,1.1-7,15.69,15.69,0,0,1,3.24-5.59,14.78,14.78,0,0,1,5.21-3.67,17.7,17.7,0,0,1,7-1.32,20.44,20.44,0,0,1,5.56.75,15,15,0,0,1,4.78,2.3,12.11,12.11,0,0,1,3.42,3.86,12.37,12.37,0,0,1,1.51,5.4Z" style="fill: #231f20"/>
      <path d="M268.47,174.05a5.91,5.91,0,0,0,1.95.25,5.29,5.29,0,0,0,2.42-.53c.69-.36,1-1.14,1-2.36V137.75h8.91v34.1a15.3,15.3,0,0,1-.53,4.33,6.75,6.75,0,0,1-1.82,3,8,8,0,0,1-3.49,1.82,21.68,21.68,0,0,1-5.59.6q-.69,0-1.44-.06c-.5-.05-1-.11-1.45-.19Zm14.32-42h-8.91v-7.35h8.91Z" style="fill: #231f20"/>
      <path d="M318.11,167.2a33.39,33.39,0,0,1-.25-4.2V146.1a7.86,7.86,0,0,0-1.32-4.71,9,9,0,0,0-3.39-2.82,15.14,15.14,0,0,0-4.59-1.35,36.41,36.41,0,0,0-5-.35,27.62,27.62,0,0,0-5.4.53,15.56,15.56,0,0,0-4.77,1.79,10.57,10.57,0,0,0-3.52,3.36,10.31,10.31,0,0,0-1.54,4.89h8.94A4.82,4.82,0,0,1,299,144a6.7,6.7,0,0,1,4.14-1.13,15.54,15.54,0,0,1,2.23.15,5.09,5.09,0,0,1,1.82.63,3.5,3.5,0,0,1,1.26,1.35,4.83,4.83,0,0,1,.47,2.26,2.42,2.42,0,0,1-.82,2.11,6,6,0,0,1-2.38,1.09,23.33,23.33,0,0,1-3.46.57c-1.3.13-2.62.29-4,.5a39.16,39.16,0,0,0-4,.85,11.33,11.33,0,0,0-3.52,1.6,8.12,8.12,0,0,0-2.51,2.86,9.44,9.44,0,0,0-1,4.55,10.3,10.3,0,0,0,.85,4.34,8.17,8.17,0,0,0,2.36,3,10.22,10.22,0,0,0,3.51,1.79,15.13,15.13,0,0,0,4.34.6,19.74,19.74,0,0,0,5.9-.91,12,12,0,0,0,5-3.11,14,14,0,0,0,.21,1.6,15.84,15.84,0,0,0,.41,1.54H319A7.49,7.49,0,0,1,318.11,167.2Zm-9.17-9.54a16.13,16.13,0,0,1-.16,2,6.66,6.66,0,0,1-.85,2.48,5.88,5.88,0,0,1-2.13,2.1,7.87,7.87,0,0,1-4.08.88,10.87,10.87,0,0,1-2.08-.19,4.88,4.88,0,0,1-1.76-.66,3.4,3.4,0,0,1-1.19-1.25,4.22,4.22,0,0,1-.44-2,4.46,4.46,0,0,1,.44-2.05,4,4,0,0,1,1.16-1.38,6.08,6.08,0,0,1,1.67-.84,14.76,14.76,0,0,1,2-.51c.67-.12,1.37-.23,2.1-.31s1.42-.19,2.07-.32a13.58,13.58,0,0,0,1.83-.47,4,4,0,0,0,1.41-.78Z" style="fill: #231f20"/>
      <path d="M233.24,167.2A33.39,33.39,0,0,1,233,163V146.1a7.86,7.86,0,0,0-1.32-4.71,9,9,0,0,0-3.39-2.82,15.14,15.14,0,0,0-4.59-1.35,36.41,36.41,0,0,0-5-.35,27.62,27.62,0,0,0-5.4.53,15.56,15.56,0,0,0-4.77,1.79,10.57,10.57,0,0,0-3.52,3.36,10.31,10.31,0,0,0-1.54,4.89h8.94a4.82,4.82,0,0,1,1.71-3.47,6.7,6.7,0,0,1,4.14-1.13,15.54,15.54,0,0,1,2.23.15,5.09,5.09,0,0,1,1.82.63A3.43,3.43,0,0,1,223.6,145a4.83,4.83,0,0,1,.47,2.26,2.42,2.42,0,0,1-.82,2.11,6,6,0,0,1-2.38,1.09,23.33,23.33,0,0,1-3.46.57c-1.3.13-2.61.29-3.95.5a39.34,39.34,0,0,0-4,.85A11.44,11.44,0,0,0,206,154a8.12,8.12,0,0,0-2.51,2.86,9.44,9.44,0,0,0-1,4.55,10.31,10.31,0,0,0,.84,4.34,8.17,8.17,0,0,0,2.36,3,10.27,10.27,0,0,0,3.52,1.79,15,15,0,0,0,4.33.6,19.69,19.69,0,0,0,5.9-.91,12,12,0,0,0,5-3.11,12.08,12.08,0,0,0,.22,1.6,13.39,13.39,0,0,0,.4,1.54h9.05A7.66,7.66,0,0,1,233.24,167.2Zm-9.17-9.54a16.13,16.13,0,0,1-.16,2,6.82,6.82,0,0,1-.84,2.48,6,6,0,0,1-2.14,2.1,7.83,7.83,0,0,1-4.08.88,10.87,10.87,0,0,1-2.08-.19,4.76,4.76,0,0,1-1.75-.66,3.43,3.43,0,0,1-1.2-1.25,4.22,4.22,0,0,1-.44-2,4.46,4.46,0,0,1,.44-2.05,4.11,4.11,0,0,1,1.16-1.38,6.23,6.23,0,0,1,1.67-.84,14.76,14.76,0,0,1,2-.51c.67-.12,1.37-.23,2.1-.31s1.43-.19,2.07-.32a13.58,13.58,0,0,0,1.83-.47,4,4,0,0,0,1.41-.78Z" style="fill: #231f20"/>
    </g>
    <rect y="0.18" width="515.91" height="226.43" style="fill: none"/>
  </g>
</svg>
