<svg width="168" height="20" viewBox="0 0 168 20" fill="none" xmlns="http://www.w3.org/2000/svg">
<path d="M3.12494 3.66751C2.71054 3.58313 2.28825 3.54372 1.86539 3.54996L1.63867 3.61713L2.36921 3.76828C2.88982 3.86904 3.15013 3.79347 3.12494 3.66751Z" fill="#D6FF30"/>
<path d="M1.63862 3.61737L1.34473 3.55859L1.54625 3.64256H1.60503L1.63862 3.61737Z" fill="#D6FF30"/>
<path d="M101.445 2.05544C108.515 2.23177 115.619 2.35773 122.715 2.4417C122.95 2.4417 123.151 2.4417 123.16 2.35773C123.168 2.27376 122.992 2.26536 122.765 2.26536C115.67 2.1646 108.608 2.04704 101.537 1.8623C101.302 1.8623 101.101 1.8623 101.076 1.94627C101.05 2.03024 101.227 2.04704 101.445 2.05544Z" fill="#D6FF30"/>
<path d="M154.413 7.30359C154.237 7.34558 154.245 7.40436 154.413 7.43794C154.607 7.47577 154.807 7.47577 155.001 7.43794C155.135 7.43794 155.135 7.33718 155.001 7.30359C154.807 7.26469 154.607 7.26469 154.413 7.30359V7.30359Z" fill="#D6FF30"/>
<path d="M152.86 11.4433C151.869 11.5188 150.929 11.6112 150.089 11.754C149.936 11.7752 149.78 11.7752 149.627 11.754C149.686 11.8379 149.493 11.9135 149.14 11.9555C142.095 12.6608 134.513 12.9463 127.048 13.3242C126.967 13.4195 126.858 13.4871 126.737 13.5173C125.886 13.7736 124.995 13.8704 124.109 13.8028L123.269 13.7524C119.994 13.6265 116.728 13.5341 113.461 13.3998C112.707 13.503 111.947 13.5619 111.186 13.5761C108.364 13.8448 105.535 14.0967 102.646 14.2898C102.831 14.3486 102.94 14.4158 102.94 14.4914C102.94 14.5669 102.209 14.8105 101.428 14.8021H100.253L103.612 14.9448C103.763 14.9352 103.914 14.9352 104.065 14.9448C105.308 14.9448 106.584 14.9448 107.827 14.9448C118.944 14.7853 129.399 14.1051 139.735 13.2654C139.93 13.2309 140.129 13.2309 140.323 13.2654C140.424 13.3074 140.407 13.3662 140.214 13.3914C133.681 14.315 128.022 15.5242 120.632 16.1204C111.832 16.8425 103.15 17.4471 94.1314 17.9173C84.7016 17.9173 75.9855 18.354 66.3709 18.6815C53.3808 19.1265 41.1128 19.2021 28.3997 19.2441C23.6386 19.3952 19.2806 18.6227 18.6592 17.5647C18.3066 16.9097 19.3814 16.2883 21.3379 15.8853H20.2882L18.4409 15.7509C17.0125 15.6942 15.5992 15.4369 14.2424 14.9868L12.9493 14.5334C11.2699 13.6937 8.45688 12.9463 7.07138 12.0143L7.39046 11.67L7.05458 11.5776C6.28432 11.4826 5.55958 11.1611 4.97213 10.6539L5.07289 10.3013C5.47305 9.68774 6.0628 9.22183 6.75229 8.97455C6.75229 8.79821 6.82786 8.63027 7.06298 8.47073C6.30725 8.04248 5.95458 7.63103 6.55076 7.11881C6.09733 6.99286 6.1729 6.81652 6.71031 6.71576C6.92063 6.67456 7.13419 6.65208 7.34848 6.64858V6.64858C7.13524 6.54954 6.91656 6.46263 6.69351 6.38827L5.98817 6.32949L3.74617 6.18674C3.25851 6.1096 2.77819 5.99162 2.31028 5.83407C1.32783 5.10353 1.32783 5.10353 1.47058 4.78445L1.7141 4.69208L0.61409 4.54933C0.485184 4.51678 0.35888 4.47468 0.236226 4.42338C0.236226 4.25544 0.236226 4.25544 0.068286 4.19666C0.0547119 4.1529 0.0547119 4.10606 0.068286 4.06231C0.513327 3.87757 0.513327 3.87757 0.521724 3.81879C0.60053 3.7821 0.681919 3.75123 0.765236 3.72643L1.60494 3.64246L2.71334 4.0791L2.94845 3.92795L3.20876 4.12948L3.06601 3.94475L3.62021 4.06231L2.98204 3.89437C4.23319 3.96154 4.23319 3.96154 4.779 3.96154C5.13691 3.98433 5.4959 3.98433 5.85381 3.96154C5.83026 3.93495 5.81303 3.90337 5.80343 3.86917C7.22252 3.93635 7.22252 3.93635 8.59963 4.02032L8.91872 4.13788C9.13749 4.0791 9.36439 4.05641 9.59048 4.0707H10.3126H10.4722L11.0851 3.97834H11.2111L13.8561 3.60047L15.0569 3.68444L14.7042 3.60887C14.4775 3.54169 14.7042 3.38215 14.5615 3.36536C11.5386 2.9707 8.25535 2.82795 5.00572 2.65161C4.59066 2.70793 4.16834 2.63461 3.79655 2.44169C3.72098 2.30733 4.13243 2.18138 4.72862 2.16459C11.8395 1.35967 19.0174 1.33995 26.1325 2.10581C27.9127 2.19817 29.7013 2.26535 31.4898 2.34092L31.2379 2.25695L32.6318 2.38291H32.783L31.7249 2.08901L30.9944 1.99665C26.8379 1.87909 23.0593 1.41725 19.0455 1.15695C16.8875 0.997403 15.0317 0.711905 12.9913 0.501981C12.4622 0.501981 12.1012 0.384423 12.1516 0.258468C12.4789 0.0866263 12.8519 0.0220035 13.218 0.0737339C20.0279 -0.136191 27.8035 0.0737338 33.2616 1.07298C34.4122 1.06713 35.5612 1.15984 36.696 1.35008H36.7547L35.9822 1.09817C36.9143 1.16534 37.4097 1.36687 38.2578 1.45924C38.1654 1.34168 38.0395 1.23252 37.9471 1.11496C42.5319 1.33328 47.4945 1.23252 51.7434 1.71954H52.2304C54.1782 1.43884 56.141 1.27341 58.1083 1.22412L55.9167 1.11496C57.5209 0.953072 59.1326 0.87739 60.745 0.888242C65.3045 0.888242 70.4099 1.44244 72.8198 2.33252C81.6703 2.22336 90.5291 2.13939 99.3459 1.92107C99.671 1.88057 100.001 1.93603 100.295 2.08062C100.345 2.17298 100.043 2.27375 99.5894 2.29054C93.2581 2.63482 86.8344 2.82795 80.4023 2.97909C85.7764 3.15543 91.184 3.32337 96.6925 3.35696L98.8085 3.31497C99.5055 3.31497 100.202 3.31497 100.891 3.36536C107.936 3.36536 114.612 3.43253 121.799 3.18062C127.929 2.9623 133.295 2.72718 139.433 2.41649C148.006 1.97145 155.824 1.52641 164.297 1.52641C165.422 1.52641 166.471 1.67756 166.597 1.93787C166.723 2.19817 165.917 2.43329 164.792 2.45848C147.108 3.29818 129.76 4.22185 111.278 4.13788H105.4C105.427 4.16571 105.444 4.20079 105.451 4.23864C105.451 4.38139 105.257 4.50735 104.947 4.61651C107.186 4.6501 109.425 4.70608 111.664 4.78445C117.895 4.49055 124.125 4.19666 130.767 4.3478C135.335 4.45696 139.458 4.75926 143.682 5.03636C149.023 4.87681 154.355 4.67529 159.754 4.54093C159.926 4.51633 160.102 4.53361 160.266 4.59132C160.342 4.6417 160.266 4.69208 160.014 4.70887C156.294 5.02796 152.499 5.27147 148.653 5.48979C149.258 5.64934 149.619 5.85926 149.577 6.08598C149.535 6.3127 149.056 6.53102 148.342 6.68217H150.945C151.491 6.68217 151.911 6.78293 151.894 6.90049C151.878 7.01805 151.458 7.11881 150.945 7.11041C147.394 7.11041 143.85 7.11041 140.306 7.06003C136.049 7.19438 131.809 7.30354 127.551 7.39591C128.001 7.4858 128.423 7.67835 128.786 7.95851V7.95851H130.759C142.8 7.29515 155.11 6.93408 167.546 7.06003C167.79 7.06003 167.991 7.06003 168 7.1608C168.008 7.26156 167.815 7.26156 167.597 7.25316C163.846 7.21398 160.104 7.21398 156.37 7.25316C156.521 7.25316 156.546 7.34553 156.37 7.37912C156.176 7.41694 155.976 7.41694 155.782 7.37912C155.614 7.33713 155.631 7.27835 155.782 7.24477C148.838 7.33713 141.935 7.56385 135.134 7.89133C141.457 7.84095 147.78 7.80736 154.103 7.89133L156.177 7.68981C156.351 7.67718 156.526 7.70298 156.689 7.76538C156.748 7.80736 156.605 7.85775 156.412 7.87454L155.832 7.92492C157.025 7.92492 157.949 8.17683 157.932 8.45393C157.915 8.73103 156.832 8.96615 155.589 8.94936C152.23 9.00813 148.947 9.03333 145.639 9.05012L144.564 9.1005L143.481 9.23485C148.636 9.34401 153.784 9.48676 158.897 9.62951C159.334 9.62951 159.737 9.70509 159.737 9.80585C159.737 9.90661 159.393 9.99058 158.948 9.99898C149.938 10.3936 140.81 10.6707 131.649 10.8387L122.547 12.1318H123.722C133.681 12.1318 142.137 10.8975 151.777 10.6455C151.941 10.6219 152.109 10.6513 152.255 10.7295C152.255 10.7799 152.113 10.8303 151.869 10.8303C147.167 10.9982 142.868 11.4181 138.199 11.67C134.328 11.9135 130.642 12.1402 127.056 12.4677C134.403 12.3501 141.457 11.8211 148.737 11.5776C149.018 11.55 149.302 11.5698 149.577 11.6364C149.577 11.6364 149.661 11.5776 149.753 11.5608C150.668 11.4265 151.659 11.3257 152.675 11.2417C152.856 11.216 153.04 11.2333 153.213 11.2921C153.221 11.3677 153.103 11.4181 152.86 11.4433ZM24.9654 5.56537L24.7806 5.50659L25.4272 5.61575L26.3509 6.01041L24.9654 5.56537ZM13.7302 7.02644L13.2096 6.79972L13.7302 7.02644ZM85.6252 3.49131C81.7542 3.49131 77.9336 3.39055 74.113 3.13024L76.9092 3.06306C79.8061 3.17222 82.7031 3.31497 85.6252 3.49131ZM17.4417 4.00353C18.2996 4.18646 19.1419 4.43634 19.9608 4.75086C20.6325 4.70048 21.3295 4.68368 22.0432 4.69208C23.9409 4.72567 25.7995 4.77885 27.6188 4.85162C27.3837 4.70887 27.8203 4.72567 28.0471 4.70887H28.7356C26.7875 4.60811 24.831 4.49055 22.8577 4.37299C21.086 4.21345 19.1463 4.14628 17.4417 3.98673V4.00353ZM3.83854 4.54933L3.67899 4.49895L4.04006 4.28902L3.83854 4.54933ZM3.26754 4.9188H3.54464C3.44388 5.01117 3.39349 4.97758 3.26754 4.902V4.9188ZM5.82862 5.17071C5.71185 5.12127 5.59105 5.08194 5.46755 5.05315L5.82862 5.17071ZM7.64237 11.4852L8.64161 10.4104L7.59199 11.4433L7.64237 11.4852Z" fill="#D6FF30"/>
</svg>
