<svg width="1200" height="642" viewBox="0 0 1200 642" fill="none" xmlns="http://www.w3.org/2000/svg">
<g clip-path="url(#clip0)">
<path d="M1251.86 94.6548L-51.7447 547.176" stroke="#40584A" stroke-miterlimit="10"/>
<path d="M1281.26 211.224L-81.1244 430.51" stroke="#40584A" stroke-miterlimit="10"/>
<path d="M1289.94 331.227L-89.7934 310.589" stroke="#40584A" stroke-miterlimit="10"/>
<path d="M1277.62 450.846L-77.604 190.942" stroke="#40584A" stroke-miterlimit="10"/>
<path d="M1244.76 566.541L-44.7422 75.2461" stroke="#40584A" stroke-miterlimit="10"/>
<path d="M1192.37 674.769L7.78516 -32.9531" stroke="#40584A" stroke-miterlimit="10"/>
<path d="M1121.92 772.218L78.2188 -130.484" stroke="#40584A" stroke-miterlimit="10"/>
<path d="M1035.6 856.022L164.512 -214.191" stroke="#40584A" stroke-miterlimit="10"/>
<path d="M936.054 923.515L264.039 -281.703" stroke="#40584A" stroke-miterlimit="10"/>
<path d="M826.314 972.711L373.793 -330.891" stroke="#40584A" stroke-miterlimit="10"/>
<path d="M709.642 1002.08L490.355 -360.305" stroke="#40584A" stroke-miterlimit="10"/>
<path d="M589.736 1010.78L610.375 -368.953" stroke="#40584A" stroke-miterlimit="10"/>
<path d="M470.119 998.481L730.023 -356.742" stroke="#40584A" stroke-miterlimit="10"/>
<path d="M354.424 965.62L845.719 -323.88" stroke="#40584A" stroke-miterlimit="10"/>
<path d="M246.195 913.205L953.917 -271.375" stroke="#40584A" stroke-miterlimit="10"/>
<path d="M148.647 842.736L1051.35 -200.961" stroke="#40584A" stroke-miterlimit="10"/>
<path d="M64.9468 756.455L1135.16 -114.634" stroke="#40584A" stroke-miterlimit="10"/>
<path d="M-2.56266 656.913L1202.66 -15.1013" stroke="#40584A" stroke-miterlimit="10"/>
</g>
<defs>
<clipPath id="clip0">
<rect width="1200" height="641.672" fill="white"/>
</clipPath>
</defs>
</svg>
